<?xml version="1.0" encoding="UTF-8" standalone="no"?>
<!-- Generator: Adobe Illustrator 19.0.1, SVG Export Plug-In . SVG Version: 6.00 Build 0)  -->

<svg
   version="1.1"
   x="0px"
   y="0px"
   viewBox="0 0 133.46551 140.13742"
   xml:space="preserve"
   id="svg1"
   sodipodi:docname="clubs-icon.svg"
   inkscape:version="1.4.2 (ebf0e94, 2025-05-08)"
   width="133.46552"
   height="140.13742"
   xmlns:inkscape="http://www.inkscape.org/namespaces/inkscape"
   xmlns:sodipodi="http://sodipodi.sourceforge.net/DTD/sodipodi-0.dtd"
   xmlns="http://www.w3.org/2000/svg"
   xmlns:svg="http://www.w3.org/2000/svg"><defs
   id="defs1"><filter
     inkscape:collect="always"
     style="color-interpolation-filters:sRGB"
     id="filter1"
     x="-0.021057574"
     y="-0.019426422"
     width="1.0421151"
     height="1.0388528"><feGaussianBlur
       inkscape:collect="always"
       stdDeviation="0.74440107"
       id="feGaussianBlur1" /></filter><filter
     inkscape:collect="always"
     style="color-interpolation-filters:sRGB"
     id="filter2"
     x="-0.077775489"
     y="-0.07175088"
     width="1.155551"
     height="1.1435018"><feGaussianBlur
       inkscape:collect="always"
       stdDeviation="2.5975171"
       id="feGaussianBlur2" /></filter><filter
     inkscape:collect="always"
     style="color-interpolation-filters:sRGB"
     id="filter4"
     x="-0.052268849"
     y="-0.048220023"
     width="1.1045377"
     height="1.09644"><feGaussianBlur
       inkscape:collect="always"
       stdDeviation="2.3633811"
       id="feGaussianBlur4" /></filter><filter
     inkscape:collect="always"
     style="color-interpolation-filters:sRGB"
     id="filter5-9"
     x="-0.1838589"
     y="-0.16961691"
     width="1.3677178"
     height="1.3392338"><feGaussianBlur
       inkscape:collect="always"
       stdDeviation="8.62491"
       id="feGaussianBlur5-5" /></filter><filter
     inkscape:collect="always"
     style="color-interpolation-filters:sRGB"
     id="filter5"
     x="-0.052267313"
     y="-0.048218606"
     width="1.1045346"
     height="1.0964372"><feGaussianBlur
       inkscape:collect="always"
       stdDeviation="1.8522264"
       id="feGaussianBlur5" /></filter></defs><sodipodi:namedview
   id="namedview1"
   pagecolor="#20204e"
   bordercolor="#eeeeee"
   borderopacity="1"
   inkscape:showpageshadow="0"
   inkscape:pageopacity="0"
   inkscape:pagecheckerboard="0"
   inkscape:deskcolor="#20204e"
   inkscape:zoom="1.5820313"
   inkscape:cx="114.72593"
   inkscape:cy="106.19259"
   inkscape:window-width="2560"
   inkscape:window-height="1371"
   inkscape:window-x="1680"
   inkscape:window-y="32"
   inkscape:window-maximized="1"
   inkscape:current-layer="svg1" />
<g
   id="_x31_2"
   transform="translate(2.7425413,6.4397794)">
	<path
   id="icon_10_-7"
   style="display:inline;opacity:1;fill:none;stroke:#007296;stroke-width:3.45318;stroke-dasharray:none;stroke-opacity:1;filter:url(#filter5)"
   d="m 123.084,74.164 c 0,15.9 -12.897,28.797 -28.797,28.797 -10.78,0 -20.199,-5.941 -25.125,-14.733 -0.022,-0.13 -0.022,-0.238 -0.022,-0.346 -0.043,0.022 -0.108,0.043 -0.151,0.043 0.065,0.108 0.108,0.194 0.173,0.302 0.497,11.817 3.197,29.056 13.718,39.772 H 45.204 c 10.542,-10.737 13.264,-28.041 13.761,-39.858 0.151,-0.238 0.281,-0.497 0.41,-0.756 -0.13,-0.043 -0.259,-0.065 -0.389,-0.108 0,0.281 0,0.562 -0.021,0.864 -4.904,8.836 -14.345,14.82 -25.168,14.82 C 17.897,102.961 5,90.064 5,74.164 5,58.264 17.897,45.367 33.797,45.367 c 2.571,0 5.055,0.346 7.432,0.972 C 37.47,41.5 35.245,35.408 35.245,28.797 35.245,12.897 48.142,0 64.042,0 c 15.9,0 28.797,12.897 28.797,28.797 0,6.611 -2.225,12.703 -5.984,17.542 2.376,-0.627 4.861,-0.972 7.432,-0.972 15.9,0 28.797,12.897 28.797,28.797 z"
   transform="matrix(0.97859398,0,0,0.97786121,1.5289089,1.7329211)" /><path
   id="icon_10_-7-4"
   style="display:inline;fill:none;stroke:#005ffe;stroke-width:2.02202;stroke-dasharray:none;stroke-opacity:1;filter:url(#filter5-9)"
   d="m 123.084,74.164 c 0,15.9 -12.897,28.797 -28.797,28.797 -10.78,0 -20.199,-5.941 -25.125,-14.733 -0.022,-0.13 -0.022,-0.238 -0.022,-0.346 -0.043,0.022 -0.108,0.043 -0.151,0.043 0.065,0.108 0.108,0.194 0.173,0.302 0.497,11.817 3.197,29.056 13.718,39.772 H 45.204 c 10.542,-10.737 13.264,-28.041 13.761,-39.858 0.151,-0.238 0.281,-0.497 0.41,-0.756 -0.13,-0.043 -0.259,-0.065 -0.389,-0.108 0,0.281 0,0.562 -0.021,0.864 -4.904,8.836 -14.345,14.82 -25.168,14.82 C 17.897,102.961 5,90.064 5,74.164 5,58.264 17.897,45.367 33.797,45.367 c 2.571,0 5.055,0.346 7.432,0.972 C 37.47,41.5 35.245,35.408 35.245,28.797 35.245,12.897 48.142,0 64.042,0 c 15.9,0 28.797,12.897 28.797,28.797 0,6.611 -2.225,12.703 -5.984,17.542 2.376,-0.627 4.861,-0.972 7.432,-0.972 15.9,0 28.797,12.897 28.797,28.797 z"
   transform="matrix(0.97859398,0,0,0.97786121,0.20170173,-1.3002427)" /><path
   id="icon_10_-2"
   style="display:inline;fill:none;stroke:#1dc9ff;stroke-width:5.9;stroke-dasharray:none;stroke-opacity:1;filter:url(#filter2)"
   d="m 123.084,74.164 c 0,15.9 -12.897,28.797 -28.797,28.797 -10.78,0 -20.199,-5.941 -25.125,-14.733 -0.022,-0.13 -0.022,-0.238 -0.022,-0.346 -0.043,0.022 -0.108,0.043 -0.151,0.043 0.065,0.108 0.108,0.194 0.173,0.302 0.497,11.817 3.197,29.056 13.718,39.772 H 45.204 c 10.542,-10.737 13.264,-28.041 13.761,-39.858 0.151,-0.238 0.281,-0.497 0.41,-0.756 -0.13,-0.043 -0.259,-0.065 -0.389,-0.108 0,0.281 0,0.562 -0.021,0.864 -4.904,8.836 -14.345,14.82 -25.168,14.82 C 17.897,102.961 5,90.064 5,74.164 5,58.264 17.897,45.367 33.797,45.367 c 2.571,0 5.055,0.346 7.432,0.972 C 37.47,41.5 35.245,35.408 35.245,28.797 35.245,12.897 48.142,0 64.042,0 c 15.9,0 28.797,12.897 28.797,28.797 0,6.611 -2.225,12.703 -5.984,17.542 2.376,-0.627 4.861,-0.972 7.432,-0.972 15.9,0 28.797,12.897 28.797,28.797 z" /><path
   id="icon_10_-4"
   style="display:inline;fill:none;stroke:#0c21ff;stroke-opacity:1;filter:url(#filter4)"
   d="m 123.084,74.164 c 0,15.9 -12.897,28.797 -28.797,28.797 -10.78,0 -20.199,-5.941 -25.125,-14.733 -0.022,-0.13 -0.022,-0.238 -0.022,-0.346 -0.043,0.022 -0.108,0.043 -0.151,0.043 0.065,0.108 0.108,0.194 0.173,0.302 0.497,11.817 3.197,29.056 13.718,39.772 H 45.204 c 10.542,-10.737 13.264,-28.041 13.761,-39.858 0.151,-0.238 0.281,-0.497 0.41,-0.756 -0.13,-0.043 -0.259,-0.065 -0.389,-0.108 0,0.281 0,0.562 -0.021,0.864 -4.904,8.836 -14.345,14.82 -25.168,14.82 C 17.897,102.961 5,90.064 5,74.164 5,58.264 17.897,45.367 33.797,45.367 c 2.571,0 5.055,0.346 7.432,0.972 C 37.47,41.5 35.245,35.408 35.245,28.797 35.245,12.897 48.142,0 64.042,0 c 15.9,0 28.797,12.897 28.797,28.797 0,6.611 -2.225,12.703 -5.984,17.542 2.376,-0.627 4.861,-0.972 7.432,-0.972 15.9,0 28.797,12.897 28.797,28.797 z" /><path
   id="icon_10_"
   style="display:inline;mix-blend-mode:normal;fill:none;stroke:#d1feff;stroke-width:1.4;stroke-dasharray:none;stroke-opacity:1;filter:url(#filter1)"
   d="m 123.042,74.164 c 0,15.9 -12.897,28.797 -28.797,28.797 -10.78,0 -20.199,-5.941 -25.125,-14.733 -0.022,-0.13 -0.022,-0.238 -0.022,-0.346 -0.043,0.022 -0.108,0.043 -0.151,0.043 0.065,0.108 0.108,0.194 0.173,0.302 0.497,11.817 3.197,29.056 13.718,39.772 H 45.162 c 10.542,-10.737 13.264,-28.041 13.761,-39.858 0.151,-0.238 0.281,-0.497 0.41,-0.756 -0.13,-0.043 -0.259,-0.065 -0.389,-0.108 0,0.281 0,0.562 -0.021,0.864 -4.904,8.836 -14.345,14.82 -25.168,14.82 -15.9,0 -28.797,-12.897 -28.797,-28.797 0,-15.9 12.897,-28.797 28.797,-28.797 2.571,0 5.055,0.346 7.432,0.972 C 37.428,41.5 35.203,35.408 35.203,28.797 35.203,12.897 48.1,0 64,0 c 15.9,0 28.797,12.897 28.797,28.797 0,6.611 -2.225,12.703 -5.984,17.542 2.376,-0.627 4.861,-0.972 7.432,-0.972 15.9,0 28.797,12.897 28.797,28.797 z" />
</g>
<g
   id="Layer_1"
   transform="translate(2.7425413,6.4397794)">
</g>
</svg>
