<?xml version="1.0" encoding="UTF-8" standalone="no"?>
<!-- Generator: Adobe Illustrator 19.0.1, SVG Export Plug-In . SVG Version: 6.00 Build 0)  -->

<svg
   version="1.1"
   x="0px"
   y="0px"
   viewBox="0 0 107.90883 137.75808"
   xml:space="preserve"
   id="svg1"
   sodipodi:docname="diamonds-icon.svg"
   width="107.90881"
   height="137.75807"
   inkscape:version="1.4.2 (ebf0e94, 2025-05-08)"
   xmlns:inkscape="http://www.inkscape.org/namespaces/inkscape"
   xmlns:sodipodi="http://sodipodi.sourceforge.net/DTD/sodipodi-0.dtd"
   xmlns="http://www.w3.org/2000/svg"
   xmlns:svg="http://www.w3.org/2000/svg"><defs
   id="defs1"><filter
     inkscape:collect="always"
     style="color-interpolation-filters:sRGB"
     id="filter1"
     x="-0.072738286"
     y="-0.066316809"
     width="1.1454595"
     height="1.1326336"><feGaussianBlur
       inkscape:collect="always"
       stdDeviation="2.0622847"
       id="feGaussianBlur1" /></filter><filter
     inkscape:collect="always"
     style="color-interpolation-filters:sRGB"
     id="filter2"
     x="-0.012489412"
     y="-0.012775096"
     width="1.0249733"
     height="1.0255502"><feGaussianBlur
       inkscape:collect="always"
       stdDeviation="0.2056572"
       id="feGaussianBlur2" /></filter><filter
     inkscape:collect="always"
     style="color-interpolation-filters:sRGB"
     id="filter3"
     x="-0.045150358"
     y="-0.044654251"
     width="1.0902836"
     height="1.0893085"><feGaussianBlur
       inkscape:collect="always"
       stdDeviation="0.90694825"
       id="feGaussianBlur3" /></filter><filter
     inkscape:collect="always"
     style="color-interpolation-filters:sRGB"
     id="filter4"
     x="-0.087137918"
     y="-0.07762367"
     width="1.1742588"
     height="1.1552473"><feGaussianBlur
       inkscape:collect="always"
       stdDeviation="2.6653173"
       id="feGaussianBlur4" /></filter></defs><sodipodi:namedview
   id="namedview1"
   pagecolor="#505050"
   bordercolor="#eeeeee"
   borderopacity="1"
   inkscape:showpageshadow="0"
   inkscape:pageopacity="0"
   inkscape:pagecheckerboard="0"
   inkscape:deskcolor="#505050"
   inkscape:zoom="6.328125"
   inkscape:cx="54.123457"
   inkscape:cy="69.05679"
   inkscape:window-width="2560"
   inkscape:window-height="1371"
   inkscape:window-x="1680"
   inkscape:window-y="32"
   inkscape:window-maximized="1"
   inkscape:current-layer="svg1" />
<g
   id="_x31_1"
   transform="translate(-9.7286836,4.87904)">
	
<path
   id="path3"
   style="display:inline;opacity:0.762;fill:none;stroke:#ff14d3;stroke-width:3.1;stroke-dasharray:none;stroke-opacity:1;filter:url(#filter4)"
   d="m 114.254,64 c 0,0 -32.901,28.845 -50.028,64 C 55.663,110.423 43.043,94.432 32.569,82.821 22.095,71.21 13.746,64 13.746,64 13.746,64 46.648,35.155 63.775,0 72.338,17.577 84.958,33.568 95.432,45.179 105.925,56.789 114.254,64 114.254,64 Z" /><path
   id="path2"
   style="display:inline;mix-blend-mode:normal;fill:none;stroke:#ff14d3;stroke-width:3.1;stroke-dasharray:none;stroke-opacity:1;filter:url(#filter3)"
   d="m 114.254,64 c 0,0 -32.901,28.845 -50.028,64 C 55.663,110.423 43.043,94.432 32.569,82.821 22.095,71.21 13.746,64 13.746,64 13.746,64 46.648,35.155 63.775,0 72.338,17.577 84.958,33.568 95.432,45.179 105.925,56.789 114.254,64 114.254,64 Z" /><path
   id="path1"
   style="display:inline;fill:none;stroke:#ea6cdb;stroke-width:3.1;stroke-dasharray:none;stroke-opacity:1;filter:url(#filter1)"
   d="m 114.254,64 c 0,0 -32.901,28.845 -50.028,64 C 55.663,110.423 43.043,94.432 32.569,82.821 22.095,71.21 13.746,64 13.746,64 13.746,64 46.648,35.155 63.775,0 72.338,17.577 84.958,33.568 95.432,45.179 105.925,56.789 114.254,64 114.254,64 Z" /><path
   id="icon_9_"
   style="display:inline;fill:none;stroke:#ffc7f8;stroke-opacity:1;filter:url(#filter2)"
   d="m 114.254,64 c 0,0 -32.901,28.845 -50.028,64 C 55.663,110.423 43.043,94.432 32.569,82.821 22.095,71.21 13.746,64 13.746,64 13.746,64 46.648,35.155 63.775,0 72.338,17.577 84.958,33.568 95.432,45.179 105.925,56.789 114.254,64 114.254,64 Z" /></g>
<g
   id="Layer_1"
   transform="translate(-9.7286836,4.87904)">
</g>
</svg>
