<?xml version="1.0" encoding="UTF-8" standalone="no"?>
<!-- Generator: Adobe Illustrator 19.0.1, SVG Export Plug-In . SVG Version: 6.00 Build 0)  -->

<svg
   version="1.1"
   x="0px"
   y="0px"
   viewBox="0 0 141.94063 127.09476"
   xml:space="preserve"
   id="svg1"
   sodipodi:docname="hearts-icon.svg"
   inkscape:version="1.4.2 (ebf0e94, 2025-05-08)"
   width="141.94063"
   height="127.09476"
   xmlns:inkscape="http://www.inkscape.org/namespaces/inkscape"
   xmlns:sodipodi="http://sodipodi.sourceforge.net/DTD/sodipodi-0.dtd"
   xmlns="http://www.w3.org/2000/svg"
   xmlns:svg="http://www.w3.org/2000/svg"><defs
   id="defs1"><filter
     inkscape:collect="always"
     style="color-interpolation-filters:sRGB"
     id="filter1"
     x="-0.06541738"
     y="-0.072339955"
     width="1.1308348"
     height="1.1490133"><feGaussianBlur
       inkscape:collect="always"
       stdDeviation="2.8431228"
       id="feGaussianBlur1" /></filter><filter
     inkscape:collect="always"
     style="color-interpolation-filters:sRGB"
     id="filter2"
     x="-0.0080193829"
     y="-0.0088681338"
     width="1.0160388"
     height="1.0191341"><feGaussianBlur
       inkscape:collect="always"
       stdDeviation="0.21937675"
       id="feGaussianBlur2" /></filter><filter
     inkscape:collect="always"
     style="color-interpolation-filters:sRGB"
     id="filter1-8"
     x="-0.030145318"
     y="-0.033335686"
     width="1.0602906"
     height="1.0710047"><feGaussianBlur
       inkscape:collect="always"
       stdDeviation="0.96194681"
       id="feGaussianBlur1-0" /></filter><filter
     inkscape:collect="always"
     style="color-interpolation-filters:sRGB"
     id="filter1-0"
     x="-0.05324497"
     y="-0.05887956"
     width="1.1064899"
     height="1.1220925"><feGaussianBlur
       inkscape:collect="always"
       stdDeviation="2.1939278"
       id="feGaussianBlur1-6" /></filter></defs><sodipodi:namedview
   id="namedview1"
   pagecolor="#19205f"
   bordercolor="#eeeeee"
   borderopacity="1"
   inkscape:showpageshadow="0"
   inkscape:pageopacity="0"
   inkscape:pagecheckerboard="0"
   inkscape:deskcolor="#19205f"
   inkscape:zoom="6.4523494"
   inkscape:cx="67.959742"
   inkscape:cy="58.42833"
   inkscape:window-width="2560"
   inkscape:window-height="1371"
   inkscape:window-x="1680"
   inkscape:window-y="32"
   inkscape:window-maximized="1"
   inkscape:current-layer="svg1"
   showgrid="false"><inkscape:grid
     id="grid1"
     units="px"
     originx="8.9889721"
     originy="-7.7491155"
     spacingx="0.99999999"
     spacingy="1"
     empcolor="#0099e5"
     empopacity="0.30196078"
     color="#0099e5"
     opacity="0.14901961"
     empspacing="5"
     enabled="true"
     visible="false" /><inkscape:page
     x="0"
     y="0"
     width="141.94063"
     height="127.09476"
     id="page1"
     margin="0"
     bleed="0" /></sodipodi:namedview>
<g
   id="_x39_"
   transform="translate(6.7995392,-0.49898795)">
	<path
   id="icon_7_"
   style="display:inline;opacity:0.761538;fill:none;stroke:#ff14d5;stroke-width:3.1;stroke-dasharray:none;stroke-opacity:1;filter:url(#filter1)"
   d="m 92.591,6.124 c -6.283,0 -12.459,1.672 -17.862,4.82 -3.676,2.152 -6.914,4.926 -9.623,8.246 l -1.11,1.364 -1.109,-1.364 c -2.705,-3.32 -5.942,-6.094 -9.619,-8.246 -5.402,-3.148 -11.58,-4.82 -17.865,-4.82 -19.191,0 -34.73,15.484 -35.381,35.25 -0.33,9.918 2.848,19.973 9.439,29.902 5.194,7.816 54.535,50.6 54.535,50.6 0,0 49.345,-42.791 54.535,-50.6 6.598,-9.93 9.77,-19.988 9.445,-29.902 C 127.321,21.608 111.78,6.124 92.591,6.124 Z" /><path
   id="icon_7_-4"
   style="display:inline;opacity:1;mix-blend-mode:normal;fill:none;stroke:#ff14d5;stroke-width:3.1;stroke-dasharray:none;stroke-opacity:1;filter:url(#filter1-0)"
   d="m 92.918071,7.314414 c -6.283,0 -12.459,1.672 -17.862,4.82 -3.676,2.152 -6.914,4.926 -9.623,8.246 l -1.11,1.364 -1.109,-1.364 c -2.705,-3.32 -5.942,-6.094 -9.619,-8.246 -5.402,-3.148 -11.58,-4.82 -17.865,-4.82 -19.191,0 -34.7299999,15.484 -35.38099991,35.25 -0.33,9.918 2.84800001,19.973 9.43900001,29.902 5.1939999,7.816 54.5349999,50.599996 54.5349999,50.599996 0,0 49.344999,-42.790996 54.534999,-50.599996 6.598,-9.93 9.77,-19.988 9.445,-29.902 -0.655,-19.766 -16.196,-35.25 -35.384999,-35.25 z" /><path
   id="icon_7_-0"
   style="fill:none;stroke:#ea6cdc;stroke-width:3.1;stroke-dasharray:none;stroke-opacity:1;filter:url(#filter1-8)"
   d="m 92.450892,5.8586723 c -6.283,0 -12.459,1.672 -17.862,4.8199997 -3.676,2.152 -6.914,4.926 -9.623,8.246 l -1.11,1.364 -1.109,-1.364 c -2.705,-3.32 -5.942,-6.094 -9.619,-8.246 -5.402,-3.1479997 -11.58,-4.8199997 -17.865,-4.8199997 -19.191,0 -34.7300004,15.4839997 -35.3810004,35.2499997 -0.33,9.918 2.848,19.973 9.439,29.902 5.1940004,7.816 54.5350004,50.599998 54.5350004,50.599998 0,0 49.344998,-42.790998 54.534998,-50.599998 6.598,-9.93 9.77,-19.988 9.445,-29.902 -0.655,-19.766 -16.196,-35.2499997 -35.384998,-35.2499997 z" /><path
   id="icon_7_-1"
   style="display:inline;fill:none;fill-opacity:1;stroke:#ffc9f9;stroke-dasharray:none;stroke-dashoffset:0;stroke-opacity:1;filter:url(#filter2)"
   d="m 92.563914,5.9716448 c -6.283,0 -12.459,1.672 -17.862,4.8200002 -3.676,2.152 -6.914,4.926 -9.623,8.246 l -1.11,1.364 -1.109,-1.364 c -2.705,-3.32 -5.942,-6.094 -9.619,-8.246 -5.402,-3.1480002 -11.58,-4.8200002 -17.865,-4.8200002 -19.191,0 -34.7300002,15.4840002 -35.3810002,35.2500002 -0.33,9.918 2.848,19.973 9.439,29.902 5.1940002,7.816 54.5350002,50.599995 54.5350002,50.599995 0,0 49.344996,-42.790995 54.534996,-50.599995 6.598,-9.93 9.77,-19.988 9.445,-29.902 -0.655,-19.766 -16.196,-35.2500002 -35.384996,-35.2500002 z"
   inkscape:label="heartMainLine" />
</g>
<g
   id="Layer_1"
   transform="translate(15.47855,-8.2481024)">
</g>
</svg>
