<?xml version="1.0" encoding="UTF-8" standalone="no"?>
<!-- Generator: Adobe Illustrator 19.0.1, SVG Export Plug-In . SVG Version: 6.00 Build 0)  -->

<svg
   version="1.1"
   x="0px"
   y="0px"
   viewBox="0 0 117.09931 139.97002"
   xml:space="preserve"
   id="svg1"
   sodipodi:docname="spades-icon.svg"
   inkscape:version="1.4.2 (ebf0e94, 2025-05-08)"
   width="117.0993"
   height="139.97002"
   xmlns:inkscape="http://www.inkscape.org/namespaces/inkscape"
   xmlns:sodipodi="http://sodipodi.sourceforge.net/DTD/sodipodi-0.dtd"
   xmlns="http://www.w3.org/2000/svg"
   xmlns:svg="http://www.w3.org/2000/svg"><defs
   id="defs1"><filter
     inkscape:collect="always"
     style="color-interpolation-filters:sRGB"
     id="filter1"
     x="-0.022726101"
     y="-0.021046091"
     width="1.0454522"
     height="1.0397498"><feGaussianBlur
       inkscape:collect="always"
       stdDeviation="0.70585804"
       id="feGaussianBlur1" /></filter><filter
     inkscape:collect="always"
     style="color-interpolation-filters:sRGB"
     id="filter2"
     x="-0.055802771"
     y="-0.047598693"
     width="1.1116055"
     height="1.0935243"><feGaussianBlur
       inkscape:collect="always"
       stdDeviation="2.2410118"
       id="feGaussianBlur2" /></filter><filter
     inkscape:collect="always"
     style="color-interpolation-filters:sRGB"
     id="filter3"
     x="-0.083855603"
     y="-0.078885224"
     width="1.1677112"
     height="1.1478991"><feGaussianBlur
       inkscape:collect="always"
       stdDeviation="2.4515441"
       id="feGaussianBlur3" /></filter><filter
     inkscape:collect="always"
     style="color-interpolation-filters:sRGB"
     id="filter4"
     x="-0.19528941"
     y="-0.16403196"
     width="1.3905788"
     height="1.3247545"><feGaussianBlur
       inkscape:collect="always"
       stdDeviation="8.1597189"
       id="feGaussianBlur4" /></filter><filter
     inkscape:collect="always"
     style="color-interpolation-filters:sRGB"
     id="filter5"
     x="-0.056047224"
     y="-0.051778998"
     width="1.1120944"
     height="1.0979062"><feGaussianBlur
       inkscape:collect="always"
       stdDeviation="1.7563496"
       id="feGaussianBlur5" /></filter></defs><sodipodi:namedview
   id="namedview1"
   pagecolor="#505050"
   bordercolor="#eeeeee"
   borderopacity="1"
   inkscape:showpageshadow="0"
   inkscape:pageopacity="0"
   inkscape:pagecheckerboard="0"
   inkscape:deskcolor="#505050"
   inkscape:zoom="2.2373301"
   inkscape:cx="48.048341"
   inkscape:cy="65.256352"
   inkscape:window-width="2560"
   inkscape:window-height="1371"
   inkscape:window-x="1680"
   inkscape:window-y="32"
   inkscape:window-maximized="1"
   inkscape:current-layer="svg1" />
<g
   id="_x31_0"
   transform="translate(-5.4503466,6.0925852)">
	<path
   id="path5"
   style="display:inline;mix-blend-mode:normal;fill:none;stroke:#007294;stroke-width:3.378;stroke-dasharray:none;stroke-opacity:1;filter:url(#filter5)"
   d="m 116.651,72.465 c -0.527,16.279 -13.302,29.023 -29.116,29.023 -5.178,0 -10.264,-1.395 -14.698,-3.969 -1.457,-0.837 -2.853,-1.83 -4.124,-2.915 0.682,10.45 3.38,24.465 12.155,33.395 H 47.132 c 8.775,-8.961 11.504,-22.977 12.186,-33.426 -1.302,1.116 -2.667,2.078 -4.155,2.946 -4.434,2.574 -9.519,3.969 -14.698,3.969 -15.783,0 -28.589,-12.744 -29.116,-29.023 C 11.07,64.31 13.675,56.031 19.101,47.845 23.38,41.426 64,0 64,0 c 0,0 40.62,41.426 44.899,47.845 5.426,8.186 8.031,16.465 7.752,24.62 z"
   inkscape:label="path1" /><path
   id="path3"
   style="display:inline;mix-blend-mode:normal;fill:none;stroke:#005dff;stroke-width:1.978;stroke-dasharray:none;stroke-opacity:1;filter:url(#filter4)"
   d="m 116.651,72.465 c -0.527,16.279 -13.302,29.023 -29.116,29.023 -5.178,0 -10.264,-1.395 -14.698,-3.969 -1.457,-0.837 -2.853,-1.83 -4.124,-2.915 0.682,10.45 3.38,24.465 12.155,33.395 H 47.132 c 8.775,-8.961 11.504,-22.977 12.186,-33.426 -1.302,1.116 -2.667,2.078 -4.155,2.946 -4.434,2.574 -9.519,3.969 -14.698,3.969 -15.783,0 -28.589,-12.744 -29.116,-29.023 C 11.07,64.31 13.675,56.031 19.101,47.845 23.38,41.426 64,0 64,0 c 0,0 40.62,41.426 44.899,47.845 5.426,8.186 8.031,16.465 7.752,24.62 z"
   inkscape:label="path1" /><path
   id="path2"
   style="display:inline;mix-blend-mode:normal;fill:none;stroke:#1fcbff;stroke-width:5.9;stroke-dasharray:none;stroke-opacity:1;filter:url(#filter3)"
   d="m 116.651,72.465 c -0.527,16.279 -13.302,29.023 -29.116,29.023 -5.178,0 -10.264,-1.395 -14.698,-3.969 -1.457,-0.837 -2.853,-1.83 -4.124,-2.915 0.682,10.45 3.38,24.465 12.155,33.395 H 47.132 c 8.775,-8.961 11.504,-22.977 12.186,-33.426 -1.302,1.116 -2.667,2.078 -4.155,2.946 -4.434,2.574 -9.519,3.969 -14.698,3.969 -15.783,0 -28.589,-12.744 -29.116,-29.023 C 11.07,64.31 13.675,56.031 19.101,47.845 23.38,41.426 64,0 64,0 c 0,0 40.62,41.426 44.899,47.845 5.426,8.186 8.031,16.465 7.752,24.62 z"
   inkscape:label="path1" /><path
   id="path1"
   style="display:inline;mix-blend-mode:normal;fill:none;stroke:#0a1fff;stroke-width:1;stroke-dasharray:none;stroke-opacity:1;filter:url(#filter2)"
   d="m 116.651,72.465 c -0.527,16.279 -13.302,29.023 -29.116,29.023 -5.178,0 -10.264,-1.395 -14.698,-3.969 -1.457,-0.837 -2.853,-1.83 -4.124,-2.915 0.682,10.45 3.38,24.465 12.155,33.395 H 47.132 c 8.775,-8.961 11.504,-22.977 12.186,-33.426 -1.302,1.116 -2.667,2.078 -4.155,2.946 -4.434,2.574 -9.519,3.969 -14.698,3.969 -15.783,0 -28.589,-12.744 -29.116,-29.023 C 11.07,64.31 13.675,56.031 19.101,47.845 23.38,41.426 64,0 64,0 c 0,0 40.62,41.426 44.899,47.845 5.426,8.186 8.031,16.465 7.752,24.62 z"
   inkscape:label="path1" /><path
   id="icon_8_"
   style="display:inline;mix-blend-mode:normal;fill:none;stroke:#d1feff;stroke-width:1.4;stroke-dasharray:none;stroke-opacity:1;filter:url(#filter1)"
   d="m 116.651,72.465 c -0.527,16.279 -13.302,29.023 -29.116,29.023 -5.178,0 -10.264,-1.395 -14.698,-3.969 -1.457,-0.837 -2.853,-1.83 -4.124,-2.915 0.682,10.45 3.38,24.465 12.155,33.395 H 47.132 c 8.775,-8.961 11.504,-22.977 12.186,-33.426 -1.302,1.116 -2.667,2.078 -4.155,2.946 -4.434,2.574 -9.519,3.969 -14.698,3.969 -15.783,0 -28.589,-12.744 -29.116,-29.023 C 11.07,64.31 13.675,56.031 19.101,47.845 23.38,41.426 64,0 64,0 c 0,0 40.62,41.426 44.899,47.845 5.426,8.186 8.031,16.465 7.752,24.62 z" />
</g>
<g
   id="Layer_1"
   transform="translate(-5.4503466,6.0925852)">
</g>
</svg>
